<?xml version="1.0" standalone="no"?>
<!DOCTYPE svg PUBLIC "-//W3C//DTD SVG 1.1//EN" 
  "http://www.w3.org/Graphics/SVG/1.1/DTD/svg11.dtd">
<svg width="71.500mm" height="23.000mm" version="1.1"
     viewBox="0 0 71.500 23.000"
     xmlns="http://www.w3.org/2000/svg"  xmlns:xlink="http://www.w3.org/1999/xlink" 
     xmlns:fpd="http://www.schaeffer-ag.de">
  <desc>Diese Zeichnung wurde mit dem Frontplatten Desinger durch den Export der Datei '1_Main.fpd' erzeugt.</desc>
  <defs>
    <pattern id="revside-fill" x="1" y="1" width="1.5" height="1.5" patternUnits="userSpaceOnUse">
      <line x1="0" y1="0" x2="1" y2="1" style="stroke-width:0.2; stroke:black; stroke-dasharray:none;" />
      <line x1="0" y1="1" x2="1" y2="0" style="stroke-width:0.2; stroke:black; stroke-dasharray:none;" />
    </pattern>
    <pattern id="revside-fill-silver" x="1" y="1" width="1.5" height="1.5" patternUnits="userSpaceOnUse">
      <line x1="0" y1="0" x2="1.5" y2="1.5" style="stroke-width:0.2; stroke:#e0e0e0; stroke-dasharray:none;" />
      <line x1="0" y1="1.5" x2="1.5" y2="0" style="stroke-width:0.2; stroke:#e0e0e0; stroke-dasharray:none;" />
    </pattern>
  </defs>
<g transform="scale(1,-1) translate(0, -23.000)" 
   fill-rule="evenodd"
   style="stroke-linecap:round; stroke-linejoin:round; stroke-opacity:1.0; stroke-opacity:1.0;">
<path d="
M68.500 23.000
A3.000,3.000 0 0,0 71.500,20.000
L71.500 3.000
A3.000,3.000 0 0,0 68.500,0.000
L3.000 0.000
A3.000,3.000 0 0,0 0.000,3.000
L0.000 20.000
A3.000,3.000 0 0,0 3.000,23.000
L68.500 23.000
" 
fill="#cccccc" vector-effect="non-scaling-stroke" stroke="#000000" stroke-width="0.100mm" />
<path d="
M11.129 3.186
L11.129 2.473
A0.345,0.345 0 0,1 11.819,2.473
L11.819 3.186
" 
fill="none" vector-effect="non-scaling-stroke" stroke="#000000" stroke-width="0.200mm" fpd:engraving_ral_9005="1" />
<path d="
M12.762 3.083
A0.273,0.273 0 0,1 12.601,3.186
A0.650,0.650 0 0,1 12.279,3.175
A0.307,0.307 0 0,1 12.118,3.059
A0.210,0.210 0 0,1 12.221,2.738
L12.624 2.599
A0.210,0.210 0 0,0 12.727,2.278
A0.307,0.307 0 0,0 12.566,2.163
A0.650,0.650 0 0,0 12.244,2.151
A0.273,0.273 0 0,0 12.083,2.255
" 
fill="none" vector-effect="non-scaling-stroke" stroke="#000000" stroke-width="0.200mm" fpd:engraving_ral_9005="1" />
<path d="
M13.418 2.669
A0.259,0.259 0 0,1 13.418,3.186
L13.038 3.186
L13.038 2.151
L13.475 2.151
A0.259,0.259 0 0,1 13.475,2.669
L13.038 2.669
" 
fill="none" vector-effect="non-scaling-stroke" stroke="#000000" stroke-width="0.200mm" fpd:engraving_ral_9005="1" />
<path d="
M25.145 2.070
L25.324 2.249
L25.445 2.127
A0.368,0.368 0 0,0 24.925,1.607
L24.681 1.851
A0.355,0.355 0 0,0 25.006,2.453
" 
fill="none" vector-effect="non-scaling-stroke" stroke="#000000" stroke-width="0.200mm" fpd:engraving_ral_9005="1" />
<path d="
M25.885 2.078
L25.153 2.810
L26.373 2.566
L25.641 3.298
" 
fill="none" vector-effect="non-scaling-stroke" stroke="#000000" stroke-width="0.200mm" fpd:engraving_ral_9005="1" />
<path d="
M25.836 3.493
L26.088 3.745
A0.347,0.347 0 0,0 26.568,3.737
L26.812 3.493
A0.333,0.333 0 0,0 26.820,3.014
L26.568 2.762
L25.836 3.493
" 
fill="none" vector-effect="non-scaling-stroke" stroke="#000000" stroke-width="0.200mm" fpd:engraving_ral_9005="1" />
<path d="
M28.051 1.934
A0.302,0.302 0 0,0 28.116,2.259
A0.270,0.270 0 0,0 28.498,1.877
A0.270,0.270 0 0,0 28.880,1.495
A0.320,0.320 0 0,0 28.571,1.413
" 
fill="none" vector-effect="non-scaling-stroke" stroke="#000000" stroke-width="0.200mm" fpd:engraving_ral_9005="1" />
<path d="
M29.246 1.975
A0.405,0.405 0 0,0 29.368,1.771
" 
fill="none" vector-effect="non-scaling-stroke" stroke="#000000" stroke-width="0.200mm" fpd:engraving_ral_9005="1" />
<path d="
M28.864 2.747
A0.302,0.302 0 0,0 28.929,3.072
A0.270,0.270 0 0,0 29.311,2.690
A0.270,0.270 0 0,0 29.694,2.308
A0.320,0.320 0 0,0 29.385,2.227
" 
fill="none" vector-effect="non-scaling-stroke" stroke="#000000" stroke-width="0.200mm" fpd:engraving_ral_9005="1" />
<path d="
M29.336 3.446
L30.312 2.958
L29.824 3.934
" 
fill="none" vector-effect="non-scaling-stroke" stroke="#000000" stroke-width="0.200mm" fpd:engraving_ral_9005="1" />
<path d="
M32.608 2.821
L32.242 2.455
L32.584 2.113
A0.394,0.394 0 0,0 32.722,2.365
A0.333,0.333 0 0,0 33.267,2.113
A0.311,0.311 0 0,0 32.868,1.812
" 
fill="none" vector-effect="non-scaling-stroke" stroke="#000000" stroke-width="0.200mm" fpd:engraving_ral_9005="1" />
<path d="
M32.836 3.048
L33.812 2.560
L33.324 3.536
" 
fill="none" vector-effect="non-scaling-stroke" stroke="#000000" stroke-width="0.200mm" fpd:engraving_ral_9005="1" />
<path d="
M35.539 2.066
L35.539 2.391
L36.271 1.660
" 
fill="none" vector-effect="non-scaling-stroke" stroke="#000000" stroke-width="0.200mm" fpd:engraving_ral_9005="1" />
<path d="
M35.815 2.522
L35.824 2.611
A0.285,0.285 0 0,0 36.393,2.611
L36.466 1.855
L36.873 2.261
" 
fill="none" vector-effect="non-scaling-stroke" stroke="#000000" stroke-width="0.200mm" fpd:engraving_ral_9005="1" />
<path d="
M36.336 3.188
L37.312 2.700
L36.824 3.676
" 
fill="none" vector-effect="non-scaling-stroke" stroke="#000000" stroke-width="0.200mm" fpd:engraving_ral_9005="1" />
<path d="
M56.627 3.996
L56.627 5.031
L57.007 5.031
A0.259,0.259 0 0,0 57.007,4.513
L56.627 4.513
L57.029 4.513
L57.259 3.996
" 
fill="none" vector-effect="non-scaling-stroke" stroke="#000000" stroke-width="0.200mm" fpd:engraving_ral_9005="1" />
<path d="
M57.524 4.513
L58.099 4.513
" 
fill="none" vector-effect="non-scaling-stroke" stroke="#000000" stroke-width="0.200mm" fpd:engraving_ral_9005="1" />
<path d="
M58.214 5.031
L57.524 5.031
L57.524 3.996
L58.214 3.996
" 
fill="none" vector-effect="non-scaling-stroke" stroke="#000000" stroke-width="0.200mm" fpd:engraving_ral_9005="1" />
<path d="
M59.157 4.928
A0.273,0.273 0 0,1 58.996,5.031
A0.650,0.650 0 0,1 58.674,5.019
A0.307,0.307 0 0,1 58.513,4.904
A0.210,0.210 0 0,1 58.617,4.582
L59.019 4.444
A0.210,0.210 0 0,0 59.123,4.122
A0.307,0.307 0 0,0 58.962,4.008
A0.650,0.650 0 0,0 58.639,3.996
A0.273,0.273 0 0,0 58.478,4.099
" 
fill="none" vector-effect="non-scaling-stroke" stroke="#000000" stroke-width="0.200mm" fpd:engraving_ral_9005="1" />
<path d="
M59.433 4.513
L60.008 4.513
" 
fill="none" vector-effect="non-scaling-stroke" stroke="#000000" stroke-width="0.200mm" fpd:engraving_ral_9005="1" />
<path d="
M60.123 5.031
L59.433 5.031
L59.433 3.996
L60.123 3.996
" 
fill="none" vector-effect="non-scaling-stroke" stroke="#000000" stroke-width="0.200mm" fpd:engraving_ral_9005="1" />
<path d="
M60.399 5.031
L61.089 5.031
L60.744 5.031
L60.744 3.996
" 
fill="none" vector-effect="non-scaling-stroke" stroke="#000000" stroke-width="0.200mm" fpd:engraving_ral_9005="1" />
<path d="
M47.886 12.563
L47.886 13.598
L48.266 13.598
A0.259,0.259 0 0,0 48.266,13.080
L47.886 13.080
" 
fill="none" vector-effect="non-scaling-stroke" stroke="#000000" stroke-width="0.200mm" fpd:engraving_ral_9005="1" />
<path d="
M48.783 13.598
L49.071 12.563
L49.358 13.598
L49.646 12.563
L49.933 13.598
" 
fill="none" vector-effect="non-scaling-stroke" stroke="#000000" stroke-width="0.200mm" fpd:engraving_ral_9005="1" />
<path d="
M50.209 12.563
L50.209 13.598
L50.589 13.598
A0.259,0.259 0 0,0 50.589,13.080
L50.209 13.080
L50.611 13.080
L50.842 12.563
" 
fill="none" vector-effect="non-scaling-stroke" stroke="#000000" stroke-width="0.200mm" fpd:engraving_ral_9005="1" />
<path d="
M47.715 11.168
L48.405 11.168
L48.060 11.168
L48.060 10.133
" 
fill="none" vector-effect="non-scaling-stroke" stroke="#000000" stroke-width="0.200mm" fpd:engraving_ral_9005="1" />
<path d="
M48.681 11.168
L49.371 10.133
" 
fill="none" vector-effect="non-scaling-stroke" stroke="#000000" stroke-width="0.200mm" fpd:engraving_ral_9005="1" />
<path d="
M48.681 10.133
L49.371 11.168
" 
fill="none" vector-effect="non-scaling-stroke" stroke="#000000" stroke-width="0.200mm" fpd:engraving_ral_9005="1" />
<path d="
M49.647 10.650
L50.222 10.650
" 
fill="none" vector-effect="non-scaling-stroke" stroke="#000000" stroke-width="0.200mm" fpd:engraving_ral_9005="1" />
<path d="
M50.337 11.168
L49.647 11.168
L49.647 10.133
L50.337 10.133
" 
fill="none" vector-effect="non-scaling-stroke" stroke="#000000" stroke-width="0.200mm" fpd:engraving_ral_9005="1" />
<path d="
M50.613 10.133
L50.613 11.168
L51.303 10.133
L51.303 11.168
" 
fill="none" vector-effect="non-scaling-stroke" stroke="#000000" stroke-width="0.200mm" fpd:engraving_ral_9005="1" />
<path d="
M47.985 8.615
L48.675 8.615
L48.330 8.615
L48.330 7.580
" 
fill="none" vector-effect="non-scaling-stroke" stroke="#000000" stroke-width="0.200mm" fpd:engraving_ral_9005="1" />
<path d="
M48.951 8.615
L49.641 7.580
" 
fill="none" vector-effect="non-scaling-stroke" stroke="#000000" stroke-width="0.200mm" fpd:engraving_ral_9005="1" />
<path d="
M48.951 7.580
L49.641 8.615
" 
fill="none" vector-effect="non-scaling-stroke" stroke="#000000" stroke-width="0.200mm" fpd:engraving_ral_9005="1" />
<path d="
M48.101 5.057
L48.101 6.092
L48.480 6.092
A0.259,0.259 0 0,0 48.480,5.574
L48.101 5.574
L48.504 5.574
L48.733 5.057
" 
fill="none" vector-effect="non-scaling-stroke" stroke="#000000" stroke-width="0.200mm" fpd:engraving_ral_9005="1" />
<path d="
M48.998 6.092
L49.688 5.057
" 
fill="none" vector-effect="non-scaling-stroke" stroke="#000000" stroke-width="0.200mm" fpd:engraving_ral_9005="1" />
<path d="
M48.998 5.057
L49.688 6.092
" 
fill="none" vector-effect="non-scaling-stroke" stroke="#000000" stroke-width="0.200mm" fpd:engraving_ral_9005="1" />
<path d="
M65.900 11.500
A1.600,1.600 0 1,0 69.100,11.500
A1.600,1.600 0 1,0 65.900,11.500
" 
fill="#ffffff" vector-effect="non-scaling-stroke" stroke="#000000" stroke-width="0.100mm" />
<path d="
M2.400 11.500
A1.600,1.600 0 1,0 5.600,11.500
A1.600,1.600 0 1,0 2.400,11.500
" 
fill="#ffffff" vector-effect="non-scaling-stroke" stroke="#000000" stroke-width="0.100mm" />
<path d="
M10.160 6.317
A0.500,0.500 0 0,1 10.867,5.610
L17.453 5.610
A0.500,0.500 0 0,1 18.160,6.317
L18.160 9.103
A0.500,0.500 0 0,1 17.453,9.810
L10.867 9.810
A0.500,0.500 0 0,1 10.160,9.103
L10.160 6.317
" 
fill="#ffffff" vector-effect="non-scaling-stroke" stroke="#000000" stroke-width="0.100mm" />
<path d="
M24.140 6.056
A0.500,0.500 0 0,1 24.847,5.349
L39.033 5.349
A0.500,0.500 0 0,1 39.740,6.056
L39.740 13.342
A0.500,0.500 0 0,1 39.033,14.049
L24.847 14.049
A0.500,0.500 0 0,1 24.140,13.342
L24.140 6.056
" 
fill="#ffffff" vector-effect="non-scaling-stroke" stroke="#000000" stroke-width="0.100mm" />
<path d="
M56.860 8.467
A1.750,1.750 0 1,0 60.360,8.467
A1.750,1.750 0 1,0 56.860,8.467
" 
fill="#ffffff" vector-effect="non-scaling-stroke" stroke="#000000" stroke-width="0.100mm" />
<path d="
M44.910 13.080
A1.000,1.000 0 1,0 46.910,13.080
A1.000,1.000 0 1,0 44.910,13.080
" 
fill="#ffffff" vector-effect="non-scaling-stroke" stroke="#000000" stroke-width="0.100mm" />
<path d="
M44.910 10.540
A1.000,1.000 0 1,0 46.910,10.540
A1.000,1.000 0 1,0 44.910,10.540
" 
fill="#ffffff" vector-effect="non-scaling-stroke" stroke="#000000" stroke-width="0.100mm" />
<path d="
M44.910 8.000
A1.000,1.000 0 1,0 46.910,8.000
A1.000,1.000 0 1,0 44.910,8.000
" 
fill="#ffffff" vector-effect="non-scaling-stroke" stroke="#000000" stroke-width="0.100mm" />
<path d="
M44.910 5.460
A1.000,1.000 0 1,0 46.910,5.460
A1.000,1.000 0 1,0 44.910,5.460
" 
fill="#ffffff" vector-effect="non-scaling-stroke" stroke="#000000" stroke-width="0.100mm" />
<path d="
M68.500 23.000
A3.000,3.000 0 0,0 71.500,20.000
L71.500 3.000
A3.000,3.000 0 0,0 68.500,0.000
L3.000 0.000
A3.000,3.000 0 0,0 0.000,3.000
L0.000 20.000
A3.000,3.000 0 0,0 3.000,23.000
L68.500 23.000
" 
fill="none" vector-effect="non-scaling-stroke" stroke="#000000" stroke-width="0.100mm" />
</g>
</svg>
