<?xml version="1.0" standalone="no"?>
<!DOCTYPE svg PUBLIC "-//W3C//DTD SVG 1.1//EN" 
  "http://www.w3.org/Graphics/SVG/1.1/DTD/svg11.dtd">
<svg width="71.500mm" height="23.000mm" version="1.1"
     viewBox="0 0 71.500 23.000"
     xmlns="http://www.w3.org/2000/svg"  xmlns:xlink="http://www.w3.org/1999/xlink" 
     xmlns:fpd="http://www.schaeffer-ag.de">
  <desc>Diese Zeichnung wurde mit dem Frontplatten Desinger durch den Export der Datei '5_TTY.fpd' erzeugt.</desc>
  <defs>
    <pattern id="revside-fill" x="1" y="1" width="1.5" height="1.5" patternUnits="userSpaceOnUse">
      <line x1="0" y1="0" x2="1" y2="1" style="stroke-width:0.2; stroke:black; stroke-dasharray:none;" />
      <line x1="0" y1="1" x2="1" y2="0" style="stroke-width:0.2; stroke:black; stroke-dasharray:none;" />
    </pattern>
    <pattern id="revside-fill-silver" x="1" y="1" width="1.5" height="1.5" patternUnits="userSpaceOnUse">
      <line x1="0" y1="0" x2="1.5" y2="1.5" style="stroke-width:0.2; stroke:#e0e0e0; stroke-dasharray:none;" />
      <line x1="0" y1="1.5" x2="1.5" y2="0" style="stroke-width:0.2; stroke:#e0e0e0; stroke-dasharray:none;" />
    </pattern>
  </defs>
<g transform="scale(1,-1) translate(0, -23.000)" 
   fill-rule="evenodd"
   style="stroke-linecap:round; stroke-linejoin:round; stroke-opacity:1.0; stroke-opacity:1.0;">
<path d="
M68.500 23.000
A3.000,3.000 0 0,0 71.500,20.000
L71.500 3.000
A3.000,3.000 0 0,0 68.500,0.000
L3.000 0.000
A3.000,3.000 0 0,0 0.000,3.000
L0.000 20.000
A3.000,3.000 0 0,0 3.000,23.000
L68.500 23.000
" 
fill="#cccccc" vector-effect="non-scaling-stroke" stroke="#000000" stroke-width="0.100mm" />
<path d="
M10.014 2.726
L10.502 3.214
L10.258 2.970
L10.990 2.238
" 
fill="none" vector-effect="non-scaling-stroke" stroke="#000000" stroke-width="0.200mm" fpd:engraving_ral_9005="1" />
<path d="
M10.697 3.409
L11.917 3.165
" 
fill="none" vector-effect="non-scaling-stroke" stroke="#000000" stroke-width="0.200mm" fpd:engraving_ral_9005="1" />
<path d="
M11.429 2.677
L11.185 3.897
" 
fill="none" vector-effect="non-scaling-stroke" stroke="#000000" stroke-width="0.200mm" fpd:engraving_ral_9005="1" />
<path d="
M11.852 3.832
L12.275 4.255
" 
fill="none" vector-effect="non-scaling-stroke" stroke="#000000" stroke-width="0.200mm" fpd:engraving_ral_9005="1" />
<path d="
M12.275 3.832
L11.852 4.255
" 
fill="none" vector-effect="non-scaling-stroke" stroke="#000000" stroke-width="0.200mm" fpd:engraving_ral_9005="1" />
<path d="
M13.162 2.887
L13.650 3.374
L13.406 3.131
L14.138 2.399
" 
fill="none" vector-effect="non-scaling-stroke" stroke="#000000" stroke-width="0.200mm" fpd:engraving_ral_9005="1" />
<path d="
M13.846 3.570
L15.065 3.326
" 
fill="none" vector-effect="non-scaling-stroke" stroke="#000000" stroke-width="0.200mm" fpd:engraving_ral_9005="1" />
<path d="
M14.577 2.838
L14.333 4.058
" 
fill="none" vector-effect="non-scaling-stroke" stroke="#000000" stroke-width="0.200mm" fpd:engraving_ral_9005="1" />
<path d="
M14.895 3.887
L15.317 4.310
" 
fill="none" vector-effect="non-scaling-stroke" stroke="#000000" stroke-width="0.200mm" fpd:engraving_ral_9005="1" />
<path d="
M17.643 2.310
L16.911 3.042
L17.179 3.310
A0.259,0.259 0 0,0 17.545,2.944
L17.277 2.676
L17.561 2.961
L18.090 2.757
" 
fill="none" vector-effect="non-scaling-stroke" stroke="#000000" stroke-width="0.200mm" fpd:engraving_ral_9005="1" />
<path d="
M17.545 3.676
L18.765 3.432
" 
fill="none" vector-effect="non-scaling-stroke" stroke="#000000" stroke-width="0.200mm" fpd:engraving_ral_9005="1" />
<path d="
M18.277 2.944
L18.033 4.164
" 
fill="none" vector-effect="non-scaling-stroke" stroke="#000000" stroke-width="0.200mm" fpd:engraving_ral_9005="1" />
<path d="
M18.700 4.099
L19.123 4.522
" 
fill="none" vector-effect="non-scaling-stroke" stroke="#000000" stroke-width="0.200mm" fpd:engraving_ral_9005="1" />
<path d="
M19.123 4.099
L18.700 4.522
" 
fill="none" vector-effect="non-scaling-stroke" stroke="#000000" stroke-width="0.200mm" fpd:engraving_ral_9005="1" />
<path d="
M21.247 2.048
L20.515 2.779
L20.784 3.048
A0.259,0.259 0 0,0 21.150,2.682
L20.881 2.413
L21.166 2.698
L21.694 2.495
" 
fill="none" vector-effect="non-scaling-stroke" stroke="#000000" stroke-width="0.200mm" fpd:engraving_ral_9005="1" />
<path d="
M21.150 3.414
L22.369 3.170
" 
fill="none" vector-effect="non-scaling-stroke" stroke="#000000" stroke-width="0.200mm" fpd:engraving_ral_9005="1" />
<path d="
M21.881 2.682
L21.637 3.902
" 
fill="none" vector-effect="non-scaling-stroke" stroke="#000000" stroke-width="0.200mm" fpd:engraving_ral_9005="1" />
<path d="
M22.199 3.731
L22.621 4.154
" 
fill="none" vector-effect="non-scaling-stroke" stroke="#000000" stroke-width="0.200mm" fpd:engraving_ral_9005="1" />
<path d="
M32.392 10.245
L33.082 10.245
L32.737 10.245
L32.737 9.210
" 
fill="none" vector-effect="non-scaling-stroke" stroke="#000000" stroke-width="0.200mm" fpd:engraving_ral_9005="1" />
<path d="
M33.358 10.245
L34.048 9.210
" 
fill="none" vector-effect="non-scaling-stroke" stroke="#000000" stroke-width="0.200mm" fpd:engraving_ral_9005="1" />
<path d="
M33.358 9.210
L34.048 10.245
" 
fill="none" vector-effect="non-scaling-stroke" stroke="#000000" stroke-width="0.200mm" fpd:engraving_ral_9005="1" />
<path d="
M35.060 10.245
L35.060 9.348
A0.140,0.140 0 0,1 35.175,9.210
" 
fill="none" vector-effect="non-scaling-stroke" stroke="#000000" stroke-width="0.200mm" fpd:engraving_ral_9005="1" />
<path d="
M35.451 9.497
L35.451 9.612
A0.288,0.288 0 0,0 36.026,9.612
L36.026 9.497
A0.288,0.288 0 0,0 35.451,9.497
" 
fill="none" vector-effect="non-scaling-stroke" stroke="#000000" stroke-width="0.200mm" fpd:engraving_ral_9005="1" />
<path d="
M36.302 9.497
L36.302 9.612
A0.288,0.288 0 0,0 36.877,9.612
L36.877 9.497
A0.287,0.287 0 0,0 36.302,9.497
" 
fill="none" vector-effect="non-scaling-stroke" stroke="#000000" stroke-width="0.200mm" fpd:engraving_ral_9005="1" />
<path d="
M37.153 8.865
L37.153 9.612
A0.288,0.288 0 0,0 37.728,9.612
L37.728 9.497
A0.287,0.287 0 0,0 37.153,9.497
L37.153 9.900
" 
fill="none" vector-effect="non-scaling-stroke" stroke="#000000" stroke-width="0.200mm" fpd:engraving_ral_9005="1" />
<path d="
M32.527 6.577
L32.527 7.612
L32.907 7.612
A0.259,0.259 0 0,0 32.907,7.095
L32.527 7.095
L32.930 7.095
L33.160 6.577
" 
fill="none" vector-effect="non-scaling-stroke" stroke="#000000" stroke-width="0.200mm" fpd:engraving_ral_9005="1" />
<path d="
M33.424 7.612
L34.114 6.577
" 
fill="none" vector-effect="non-scaling-stroke" stroke="#000000" stroke-width="0.200mm" fpd:engraving_ral_9005="1" />
<path d="
M33.424 6.577
L34.114 7.612
" 
fill="none" vector-effect="non-scaling-stroke" stroke="#000000" stroke-width="0.200mm" fpd:engraving_ral_9005="1" />
<path d="
M35.126 7.612
L35.126 6.715
A0.140,0.140 0 0,1 35.241,6.577
" 
fill="none" vector-effect="non-scaling-stroke" stroke="#000000" stroke-width="0.200mm" fpd:engraving_ral_9005="1" />
<path d="
M35.517 6.865
L35.517 6.979
A0.287,0.287 0 0,0 36.092,6.979
L36.092 6.865
A0.288,0.288 0 0,0 35.517,6.865
" 
fill="none" vector-effect="non-scaling-stroke" stroke="#000000" stroke-width="0.200mm" fpd:engraving_ral_9005="1" />
<path d="
M36.368 6.865
L36.368 6.979
A0.287,0.287 0 0,0 36.943,6.979
L36.943 6.865
A0.288,0.288 0 0,0 36.368,6.865
" 
fill="none" vector-effect="non-scaling-stroke" stroke="#000000" stroke-width="0.200mm" fpd:engraving_ral_9005="1" />
<path d="
M37.219 6.232
L37.219 6.979
A0.288,0.288 0 0,0 37.794,6.979
L37.794 6.865
A0.288,0.288 0 0,0 37.219,6.865
L37.219 7.267
" 
fill="none" vector-effect="non-scaling-stroke" stroke="#000000" stroke-width="0.200mm" fpd:engraving_ral_9005="1" />
<path d="
M50.788 4.203
A0.285,0.285 0 0,1 50.294,4.008
L50.294 3.893
A0.286,0.286 0 0,1 50.823,3.743
" 
fill="none" vector-effect="non-scaling-stroke" stroke="#000000" stroke-width="0.200mm" fpd:engraving_ral_9005="1" />
<path d="
M51.099 3.893
L51.099 4.008
A0.288,0.288 0 0,0 51.674,4.008
L51.674 3.893
A0.287,0.287 0 0,0 51.099,3.893
" 
fill="none" vector-effect="non-scaling-stroke" stroke="#000000" stroke-width="0.200mm" fpd:engraving_ral_9005="1" />
<path d="
M51.950 3.605
L51.950 4.295
L51.950 4.008
A0.288,0.288 0 0,0 52.525,4.008
L52.525 3.605
" 
fill="none" vector-effect="non-scaling-stroke" stroke="#000000" stroke-width="0.200mm" fpd:engraving_ral_9005="1" />
<path d="
M52.790 4.295
L53.077 4.295
" 
fill="none" vector-effect="non-scaling-stroke" stroke="#000000" stroke-width="0.200mm" fpd:engraving_ral_9005="1" />
<path d="
M53.077 4.640
A0.172,0.172 0 0,1 52.904,4.468
L52.904 3.605
" 
fill="none" vector-effect="non-scaling-stroke" stroke="#000000" stroke-width="0.200mm" fpd:engraving_ral_9005="1" />
<path d="
M53.353 4.640
L53.353 4.582
" 
fill="none" vector-effect="non-scaling-stroke" stroke="#000000" stroke-width="0.200mm" fpd:engraving_ral_9005="1" />
<path d="
M53.353 4.295
L53.353 3.605
" 
fill="none" vector-effect="non-scaling-stroke" stroke="#000000" stroke-width="0.200mm" fpd:engraving_ral_9005="1" />
<path d="
M54.204 4.295
L54.204 3.893
A0.288,0.288 0 0,0 53.629,3.869
L53.629 4.008
A0.288,0.288 0 0,0 54.204,4.008
L54.204 3.547
A0.290,0.290 0 0,0 53.709,3.341
" 
fill="none" vector-effect="non-scaling-stroke" stroke="#000000" stroke-width="0.200mm" fpd:engraving_ral_9005="1" />
<path d="
M65.900 11.500
A1.600,1.600 0 1,0 69.100,11.500
A1.600,1.600 0 1,0 65.900,11.500
" 
fill="#ffffff" vector-effect="non-scaling-stroke" stroke="#000000" stroke-width="0.100mm" />
<path d="
M2.400 11.500
A1.600,1.600 0 1,0 5.600,11.500
A1.600,1.600 0 1,0 2.400,11.500
" 
fill="#ffffff" vector-effect="non-scaling-stroke" stroke="#000000" stroke-width="0.100mm" />
<path d="
M8.900 6.513
A0.500,0.500 0 0,1 9.607,5.806
L23.793 5.806
A0.500,0.500 0 0,1 24.500,6.513
L24.500 13.799
A0.500,0.500 0 0,1 23.793,14.506
L9.607 14.506
A0.500,0.500 0 0,1 8.900,13.799
L8.900 6.513
" 
fill="#ffffff" vector-effect="non-scaling-stroke" stroke="#000000" stroke-width="0.100mm" />
<path d="
M29.670 9.524
A1.000,1.000 0 1,0 31.670,9.524
A1.000,1.000 0 1,0 29.670,9.524
" 
fill="#ffffff" vector-effect="non-scaling-stroke" stroke="#000000" stroke-width="0.100mm" />
<path d="
M29.670 6.984
A1.000,1.000 0 1,0 31.670,6.984
A1.000,1.000 0 1,0 29.670,6.984
" 
fill="#ffffff" vector-effect="non-scaling-stroke" stroke="#000000" stroke-width="0.100mm" />
<path d="
M44.019 7.106
A0.500,0.500 0 0,1 44.726,6.399
L59.312 6.399
A0.500,0.500 0 0,1 60.019,7.106
L60.019 11.692
A0.500,0.500 0 0,1 59.312,12.399
L44.726 12.399
A0.500,0.500 0 0,1 44.019,11.692
L44.019 7.106
" 
fill="#ffffff" vector-effect="non-scaling-stroke" stroke="#000000" stroke-width="0.100mm" />
<path d="
M68.500 23.000
A3.000,3.000 0 0,0 71.500,20.000
L71.500 3.000
A3.000,3.000 0 0,0 68.500,0.000
L3.000 0.000
A3.000,3.000 0 0,0 0.000,3.000
L0.000 20.000
A3.000,3.000 0 0,0 3.000,23.000
L68.500 23.000
" 
fill="none" vector-effect="non-scaling-stroke" stroke="#000000" stroke-width="0.100mm" />
</g>
</svg>
