  0
SECTION
  2
HEADER
  9
$MEASUREMENT
  70
  1
  9
$INSUNITS
  70
  4
  0
ENDSEC
  0
SECTION
  2
TABLES
  0
TABLE
  2
LTYPE
 70
     1
  0
LTYPE
  2
CONTINUOUS
 70
    64
  3
Ausgezogene Linie
 72
    65
 73
     0
 40
0.0
  0
ENDTAB
  0
TABLE
  2
LAYER
 70
     3
  0
LAYER
  2
Kontur
 70
    64
 62
     7
  6
CONTINUOUS
  0
LAYER
  2
Gravur
 70
    64
 62
     7
  6
CONTINUOUS
  0
LAYER
  2
Bezugspunkte
 70
    64
 62
     1
  6
CONTINUOUS
  0
ENDTAB
  0
TABLE
  2
STYLE
 70
     1
  0
STYLE
  2
TXT
 70
    64
 40
0.0
 41
1.0
 50
0.0
 71
     0
 42
3.500000
  3
TXT
  0
ENDTAB
  0
ENDSEC
  0
SECTION
  2
BLOCKS
  0
ENDSEC
  0
SECTION
  2
ENTITIES
  0
ARC
  8
Kontur
 62
   7
 39
0.100
  6
CONTINUOUS
 10
68.50000
 20
21.00000
 30
 0
 40
3.00000
 50
0.00000
 51
90.00000
  0
LINE
  8
Kontur
 62
   7
 39
0.100
  6
CONTINUOUS
 10
71.50000
 20
21.00000
 30
 0
 11
71.50000
 21
3.00000
  0
ARC
  8
Kontur
 62
   7
 39
0.100
  6
CONTINUOUS
 10
68.50000
 20
3.00000
 30
 0
 40
3.00000
 50
270.00000
 51
360.00000
  0
LINE
  8
Kontur
 62
   7
 39
0.100
  6
CONTINUOUS
 10
68.50000
 20
0.00000
 30
 0
 11
3.00000
 21
0.00000
  0
ARC
  8
Kontur
 62
   7
 39
0.100
  6
CONTINUOUS
 10
3.00000
 20
3.00000
 30
 0
 40
3.00000
 50
180.00000
 51
270.00000
  0
LINE
  8
Kontur
 62
   7
 39
0.100
  6
CONTINUOUS
 10
0.00000
 20
3.00000
 30
 0
 11
0.00000
 21
21.00000
  0
ARC
  8
Kontur
 62
   7
 39
0.100
  6
CONTINUOUS
 10
3.00000
 20
21.00000
 30
 0
 40
3.00000
 50
90.00000
 51
180.00000
  0
LINE
  8
Kontur
 62
   7
 39
0.100
  6
CONTINUOUS
 10
3.00000
 20
24.00000
 30
 0
 11
68.50000
 21
24.00000
  0
LINE
  8
Gravur
 62
   7
 39
0.200
  6
CONTINUOUS
 10
33.10200
 20
20.91500
 30
 0
 11
33.10200
 21
21.95000
  0
LINE
  8
Gravur
 62
   7
 39
0.200
  6
CONTINUOUS
 10
33.10200
 20
21.95000
 30
 0
 11
33.48150
 21
21.95000
  0
ARC
  8
Gravur
 62
   7
 39
0.200
  6
CONTINUOUS
 10
33.48150
 20
21.69125
 30
 0
 40
0.25875
 50
-90.00000
 51
90.00000
  0
LINE
  8
Gravur
 62
   7
 39
0.200
  6
CONTINUOUS
 10
33.48150
 20
21.43250
 30
 0
 11
33.10200
 21
21.43250
  0
LINE
  8
Gravur
 62
   7
 39
0.200
  6
CONTINUOUS
 10
33.10200
 20
21.43250
 30
 0
 11
33.50450
 21
21.43250
  0
LINE
  8
Gravur
 62
   7
 39
0.200
  6
CONTINUOUS
 10
33.50450
 20
21.43250
 30
 0
 11
33.73450
 21
20.91500
  0
ARC
  8
Gravur
 62
   7
 39
0.200
  6
CONTINUOUS
 10
34.44731
 20
21.68329
 30
 0
 40
0.27288
 50
36.73449
 51
77.79505
  0
ARC
  8
Gravur
 62
   7
 39
0.200
  6
CONTINUOUS
 10
34.36646
 20
21.31542
 30
 0
 40
0.64952
 50
77.68434
 51
106.40648
  0
ARC
  8
Gravur
 62
   7
 39
0.200
  6
CONTINUOUS
 10
34.27162
 20
21.64424
 30
 0
 40
0.30731
 50
106.75938
 51
144.31597
  0
ARC
  8
Gravur
 62
   7
 39
0.200
  6
CONTINUOUS
 10
34.19293
 20
21.70081
 30
 0
 40
0.21040
 50
144.32844
 51
251.30934
  0
LINE
  8
Gravur
 62
   7
 39
0.200
  6
CONTINUOUS
 10
34.12550
 20
21.50150
 30
 0
 11
34.52800
 21
21.36350
  0
ARC
  8
Gravur
 62
   7
 39
0.200
  6
CONTINUOUS
 10
34.46057
 20
21.16419
 30
 0
 40
0.21040
 50
-35.67156
 51
71.30934
  0
ARC
  8
Gravur
 62
   7
 39
0.200
  6
CONTINUOUS
 10
34.38188
 20
21.22076
 30
 0
 40
0.30731
 50
286.75938
 51
324.31597
  0
ARC
  8
Gravur
 62
   7
 39
0.200
  6
CONTINUOUS
 10
34.28704
 20
21.54958
 30
 0
 40
0.64952
 50
257.68434
 51
286.40648
  0
ARC
  8
Gravur
 62
   7
 39
0.200
  6
CONTINUOUS
 10
34.20619
 20
21.18171
 30
 0
 40
0.27288
 50
216.73449
 51
257.79505
  0
LINE
  8
Gravur
 62
   7
 39
0.200
  6
CONTINUOUS
 10
34.95350
 20
21.84650
 30
 0
 11
35.02250
 21
21.90400
  0
ARC
  8
Gravur
 62
   7
 39
0.200
  6
CONTINUOUS
 10
35.20894
 20
21.68794
 30
 0
 40
0.28538
 50
-40.79241
 51
130.79241
  0
LINE
  8
Gravur
 62
   7
 39
0.200
  6
CONTINUOUS
 10
35.42500
 20
21.50150
 30
 0
 11
34.94200
 21
20.91500
  0
LINE
  8
Gravur
 62
   7
 39
0.200
  6
CONTINUOUS
 10
34.94200
 20
20.91500
 30
 0
 11
35.51700
 21
20.91500
  0
ARC
  8
Gravur
 62
   7
 39
0.200
  6
CONTINUOUS
 10
36.07097
 20
21.67104
 30
 0
 40
0.30197
 50
90.37438
 51
157.00576
  0
ARC
  8
Gravur
 62
   7
 39
0.200
  6
CONTINUOUS
 10
36.06900
 20
21.70275
 30
 0
 40
0.27025
 50
-90.00000
 51
90.00000
  0
ARC
  8
Gravur
 62
   7
 39
0.200
  6
CONTINUOUS
 10
36.06900
 20
21.16225
 30
 0
 40
0.27025
 50
-90.00000
 51
90.00000
  0
ARC
  8
Gravur
 62
   7
 39
0.200
  6
CONTINUOUS
 10
36.07057
 20
21.21176
 30
 0
 40
0.31977
 50
209.76844
 51
269.71869
  0
LINE
  8
Gravur
 62
   7
 39
0.200
  6
CONTINUOUS
 10
36.63250
 20
21.84650
 30
 0
 11
36.70150
 21
21.90400
  0
ARC
  8
Gravur
 62
   7
 39
0.200
  6
CONTINUOUS
 10
36.88794
 20
21.68794
 30
 0
 40
0.28538
 50
-40.79241
 51
130.79241
  0
LINE
  8
Gravur
 62
   7
 39
0.200
  6
CONTINUOUS
 10
37.10400
 20
21.50150
 30
 0
 11
36.62100
 21
20.91500
  0
LINE
  8
Gravur
 62
   7
 39
0.200
  6
CONTINUOUS
 10
36.62100
 20
20.91500
 30
 0
 11
37.19600
 21
20.91500
  0
CIRCLE
  8
Kontur
 62
   7
 39
0.100
  6
CONTINUOUS
 10
67.50000
 20
12.00000
 30
 0
 40
1.60000
  0
CIRCLE
  8
Kontur
 62
   7
 39
0.100
  6
CONTINUOUS
 10
4.00000
 20
12.00000
 30
 0
 40
1.60000
  0
ARC
  8
Kontur
 62
   7
 39
0.100
  6
CONTINUOUS
 10
28.24922
 20
16.63000
 30
 0
 40
2.50000
 50
90.00497
 51
189.97393
  0
LINE
  8
Kontur
 62
   7
 39
0.100
  6
CONTINUOUS
 10
25.78700
 20
16.19700
 30
 0
 11
26.93300
 21
9.69600
  0
ARC
  8
Kontur
 62
   7
 39
0.100
  6
CONTINUOUS
 10
29.39504
 20
10.13000
 30
 0
 40
2.50000
 50
189.99719
 51
269.97615
  0
LINE
  8
Kontur
 62
   7
 39
0.100
  6
CONTINUOUS
 10
29.39400
 20
7.63000
 30
 0
 11
42.10600
 21
7.63000
  0
ARC
  8
Kontur
 62
   7
 39
0.100
  6
CONTINUOUS
 10
42.10496
 20
10.13000
 30
 0
 40
2.50000
 50
270.02385
 51
350.00281
  0
LINE
  8
Kontur
 62
   7
 39
0.100
  6
CONTINUOUS
 10
44.56700
 20
9.69600
 30
 0
 11
45.71300
 21
16.19700
  0
ARC
  8
Kontur
 62
   7
 39
0.100
  6
CONTINUOUS
 10
43.25078
 20
16.63000
 30
 0
 40
2.50000
 50
350.02607
 51
449.99503
  0
LINE
  8
Kontur
 62
   7
 39
0.100
  6
CONTINUOUS
 10
43.25100
 20
19.13000
 30
 0
 11
28.24900
 21
19.13000
  0
CIRCLE
  8
Kontur
 62
   7
 39
0.100
  6
CONTINUOUS
 10
48.25000
 20
13.38000
 30
 0
 40
1.60000
  0
CIRCLE
  8
Kontur
 62
   7
 39
0.100
  6
CONTINUOUS
 10
23.25000
 20
13.38000
 30
 0
 40
1.60000
  0
ENDSEC
  0
EOF
