<?xml version="1.0" standalone="no"?>
<!DOCTYPE svg PUBLIC "-//W3C//DTD SVG 1.1//EN" 
  "http://www.w3.org/Graphics/SVG/1.1/DTD/svg11.dtd">
<svg width="71.500mm" height="24.000mm" version="1.1"
     viewBox="0 0 71.500 24.000"
     xmlns="http://www.w3.org/2000/svg"  xmlns:xlink="http://www.w3.org/1999/xlink" 
     xmlns:fpd="http://www.schaeffer-ag.de">
  <desc>Diese Zeichnung wurde mit dem Frontplatten Desinger durch den Export der Datei '3_RS232.fpd' erzeugt.</desc>
  <defs>
    <pattern id="revside-fill" x="1" y="1" width="1.5" height="1.5" patternUnits="userSpaceOnUse">
      <line x1="0" y1="0" x2="1" y2="1" style="stroke-width:0.2; stroke:black; stroke-dasharray:none;" />
      <line x1="0" y1="1" x2="1" y2="0" style="stroke-width:0.2; stroke:black; stroke-dasharray:none;" />
    </pattern>
    <pattern id="revside-fill-silver" x="1" y="1" width="1.5" height="1.5" patternUnits="userSpaceOnUse">
      <line x1="0" y1="0" x2="1.5" y2="1.5" style="stroke-width:0.2; stroke:#e0e0e0; stroke-dasharray:none;" />
      <line x1="0" y1="1.5" x2="1.5" y2="0" style="stroke-width:0.2; stroke:#e0e0e0; stroke-dasharray:none;" />
    </pattern>
  </defs>
<g transform="scale(1,-1) translate(0, -24.000)" 
   fill-rule="evenodd"
   style="stroke-linecap:round; stroke-linejoin:round; stroke-opacity:1.0; stroke-opacity:1.0;">
<path d="
M68.500 24.000
A3.000,3.000 0 0,0 71.500,21.000
L71.500 3.000
A3.000,3.000 0 0,0 68.500,0.000
L3.000 0.000
A3.000,3.000 0 0,0 0.000,3.000
L0.000 21.000
A3.000,3.000 0 0,0 3.000,24.000
L68.500 24.000
" 
fill="#cccccc" vector-effect="non-scaling-stroke" stroke="#000000" stroke-width="0.100mm" />
<path d="
M33.102 20.915
L33.102 21.950
L33.481 21.950
A0.259,0.259 0 0,0 33.481,21.433
L33.102 21.433
L33.505 21.433
L33.734 20.915
" 
fill="none" vector-effect="non-scaling-stroke" stroke="#000000" stroke-width="0.200mm" fpd:engraving_ral_9005="1" />
<path d="
M34.666 21.847
A0.273,0.273 0 0,1 34.505,21.950
A0.650,0.650 0 0,1 34.183,21.939
A0.307,0.307 0 0,1 34.022,21.824
A0.210,0.210 0 0,1 34.125,21.502
L34.528 21.364
A0.210,0.210 0 0,0 34.631,21.042
A0.307,0.307 0 0,0 34.470,20.927
A0.650,0.650 0 0,0 34.148,20.915
A0.273,0.273 0 0,0 33.987,21.018
" 
fill="none" vector-effect="non-scaling-stroke" stroke="#000000" stroke-width="0.200mm" fpd:engraving_ral_9005="1" />
<path d="
M34.953 21.847
L35.022 21.904
A0.285,0.285 0 0,0 35.425,21.502
L34.942 20.915
L35.517 20.915
" 
fill="none" vector-effect="non-scaling-stroke" stroke="#000000" stroke-width="0.200mm" fpd:engraving_ral_9005="1" />
<path d="
M35.793 21.789
A0.302,0.302 0 0,0 36.069,21.973
A0.270,0.270 0 0,0 36.069,21.433
A0.270,0.270 0 0,0 36.069,20.892
A0.320,0.320 0 0,0 35.793,21.053
" 
fill="none" vector-effect="non-scaling-stroke" stroke="#000000" stroke-width="0.200mm" fpd:engraving_ral_9005="1" />
<path d="
M36.632 21.847
L36.701 21.904
A0.285,0.285 0 0,0 37.104,21.502
L36.621 20.915
L37.196 20.915
" 
fill="none" vector-effect="non-scaling-stroke" stroke="#000000" stroke-width="0.200mm" fpd:engraving_ral_9005="1" />
<path d="
M65.900 12.000
A1.600,1.600 0 1,0 69.100,12.000
A1.600,1.600 0 1,0 65.900,12.000
" 
fill="#ffffff" vector-effect="non-scaling-stroke" stroke="#000000" stroke-width="0.100mm" />
<path d="
M2.400 12.000
A1.600,1.600 0 1,0 5.600,12.000
A1.600,1.600 0 1,0 2.400,12.000
" 
fill="#ffffff" vector-effect="non-scaling-stroke" stroke="#000000" stroke-width="0.100mm" />
<path d="
M28.249 19.130
A2.500,2.500 0 0,1 25.787,16.197
L26.933 9.696
A2.500,2.500 0 0,1 29.394,7.630
L42.106 7.630
A2.500,2.500 0 0,1 44.567,9.696
L45.713 16.197
A2.500,2.500 0 0,1 43.251,19.130
L28.249 19.130
" 
fill="#ffffff" vector-effect="non-scaling-stroke" stroke="#000000" stroke-width="0.100mm" />
<path d="
M46.650 13.380
A1.600,1.600 0 1,0 49.850,13.380
A1.600,1.600 0 1,0 46.650,13.380
" 
fill="#ffffff" vector-effect="non-scaling-stroke" stroke="#000000" stroke-width="0.100mm" />
<path d="
M21.650 13.380
A1.600,1.600 0 1,0 24.850,13.380
A1.600,1.600 0 1,0 21.650,13.380
" 
fill="#ffffff" vector-effect="non-scaling-stroke" stroke="#000000" stroke-width="0.100mm" />
<path d="
M68.500 24.000
A3.000,3.000 0 0,0 71.500,21.000
L71.500 3.000
A3.000,3.000 0 0,0 68.500,0.000
L3.000 0.000
A3.000,3.000 0 0,0 0.000,3.000
L0.000 21.000
A3.000,3.000 0 0,0 3.000,24.000
L68.500 24.000
" 
fill="none" vector-effect="non-scaling-stroke" stroke="#000000" stroke-width="0.100mm" />
</g>
</svg>
