<?xml version="1.0" standalone="no"?>
<!DOCTYPE svg PUBLIC "-//W3C//DTD SVG 1.1//EN" 
  "http://www.w3.org/Graphics/SVG/1.1/DTD/svg11.dtd">
<svg width="71.500mm" height="24.000mm" version="1.1"
     viewBox="0 0 71.500 24.000"
     xmlns="http://www.w3.org/2000/svg"  xmlns:xlink="http://www.w3.org/1999/xlink" 
     xmlns:fpd="http://www.schaeffer-ag.de">
  <desc>Diese Zeichnung wurde mit dem Frontplatten Desinger durch den Export der Datei '6_LIN.fpd' erzeugt.</desc>
  <defs>
    <pattern id="revside-fill" x="1" y="1" width="1.5" height="1.5" patternUnits="userSpaceOnUse">
      <line x1="0" y1="0" x2="1" y2="1" style="stroke-width:0.2; stroke:black; stroke-dasharray:none;" />
      <line x1="0" y1="1" x2="1" y2="0" style="stroke-width:0.2; stroke:black; stroke-dasharray:none;" />
    </pattern>
    <pattern id="revside-fill-silver" x="1" y="1" width="1.5" height="1.5" patternUnits="userSpaceOnUse">
      <line x1="0" y1="0" x2="1.5" y2="1.5" style="stroke-width:0.2; stroke:#e0e0e0; stroke-dasharray:none;" />
      <line x1="0" y1="1.5" x2="1.5" y2="0" style="stroke-width:0.2; stroke:#e0e0e0; stroke-dasharray:none;" />
    </pattern>
  </defs>
<g transform="scale(1,-1) translate(0, -24.000)" 
   fill-rule="evenodd"
   style="stroke-linecap:round; stroke-linejoin:round; stroke-opacity:1.0; stroke-opacity:1.0;">
<path d="
M68.500 24.000
A3.000,3.000 0 0,0 71.500,21.000
L71.500 3.000
A3.000,3.000 0 0,0 68.500,0.000
L3.000 0.000
A3.000,3.000 0 0,0 0.000,3.000
L0.000 21.000
A3.000,3.000 0 0,0 3.000,24.000
L68.500 24.000
" 
fill="#cccccc" vector-effect="non-scaling-stroke" stroke="#000000" stroke-width="0.100mm" />
<path d="
M17.977 18.140
L18.156 18.319
L18.278 18.197
A0.368,0.368 0 0,0 17.758,17.676
L17.514 17.920
A0.355,0.355 0 0,0 17.839,18.522
" 
fill="none" vector-effect="non-scaling-stroke" stroke="#000000" stroke-width="0.200mm" fpd:engraving_ral_9005="1" />
<path d="
M18.717 18.148
L17.985 18.880
L19.205 18.636
L18.473 19.368
" 
fill="none" vector-effect="non-scaling-stroke" stroke="#000000" stroke-width="0.200mm" fpd:engraving_ral_9005="1" />
<path d="
M18.669 19.563
L18.921 19.815
A0.347,0.347 0 0,0 19.400,19.807
L19.644 19.563
A0.333,0.333 0 0,0 19.652,19.083
L19.400 18.831
L18.669 19.563
" 
fill="none" vector-effect="non-scaling-stroke" stroke="#000000" stroke-width="0.200mm" fpd:engraving_ral_9005="1" />
<path d="
M19.500 17.406
L19.752 17.658
A0.347,0.347 0 0,0 20.232,17.650
L20.476 17.406
A0.333,0.333 0 0,0 20.484,16.926
L20.232 16.674
L19.500 17.406
" 
fill="none" vector-effect="non-scaling-stroke" stroke="#000000" stroke-width="0.200mm" fpd:engraving_ral_9005="1" />
<path d="
M20.793 17.642
L21.199 18.048
" 
fill="none" vector-effect="non-scaling-stroke" stroke="#000000" stroke-width="0.200mm" fpd:engraving_ral_9005="1" />
<path d="
M20.915 17.357
L20.467 18.374
L21.484 17.926
" 
fill="none" vector-effect="non-scaling-stroke" stroke="#000000" stroke-width="0.200mm" fpd:engraving_ral_9005="1" />
<path d="
M20.947 18.853
L21.435 19.341
L21.191 19.097
L21.923 18.365
" 
fill="none" vector-effect="non-scaling-stroke" stroke="#000000" stroke-width="0.200mm" fpd:engraving_ral_9005="1" />
<path d="
M22.240 19.089
L22.647 19.496
" 
fill="none" vector-effect="non-scaling-stroke" stroke="#000000" stroke-width="0.200mm" fpd:engraving_ral_9005="1" />
<path d="
M22.362 18.804
L21.915 19.821
L22.931 19.374
" 
fill="none" vector-effect="non-scaling-stroke" stroke="#000000" stroke-width="0.200mm" fpd:engraving_ral_9005="1" />
<path d="
M23.420 18.877
L24.396 18.389
L23.908 19.365
" 
fill="none" vector-effect="non-scaling-stroke" stroke="#000000" stroke-width="0.200mm" fpd:engraving_ral_9005="1" />
<path d="
M24.575 19.300
L24.998 19.723
" 
fill="none" vector-effect="non-scaling-stroke" stroke="#000000" stroke-width="0.200mm" fpd:engraving_ral_9005="1" />
<path d="
M24.998 19.300
L24.575 19.723
" 
fill="none" vector-effect="non-scaling-stroke" stroke="#000000" stroke-width="0.200mm" fpd:engraving_ral_9005="1" />
<path d="
M49.258 13.630
L49.258 14.320
L49.258 14.090
A0.230,0.230 0 0,0 49.718,14.090
L49.718 13.630
L49.718 14.090
A0.230,0.230 0 0,0 50.178,14.090
L50.178 13.630
" 
fill="none" vector-effect="non-scaling-stroke" stroke="#000000" stroke-width="0.200mm" fpd:engraving_ral_9005="1" />
<path d="
M51.052 14.320
L51.052 13.917
A0.299,0.299 0 0,0 50.454,13.917
L50.454 14.032
A0.299,0.299 0 0,0 51.052,14.032
L51.052 13.756
A0.167,0.167 0 0,1 51.190,13.607
" 
fill="none" vector-effect="non-scaling-stroke" stroke="#000000" stroke-width="0.200mm" fpd:engraving_ral_9005="1" />
<path d="
M51.466 13.722
A0.391,0.391 0 0,1 51.880,13.653
A0.148,0.148 0 0,1 51.869,13.929
L51.558 14.032
A0.132,0.132 0 0,0 51.535,14.274
A0.407,0.407 0 0,0 51.972,14.251
" 
fill="none" vector-effect="non-scaling-stroke" stroke="#000000" stroke-width="0.200mm" fpd:engraving_ral_9005="1" />
<path d="
M52.352 14.665
L52.352 14.320
L52.524 14.320
L52.236 14.320
L52.352 14.320
L52.352 13.768
A0.140,0.140 0 0,1 52.467,13.630
" 
fill="none" vector-effect="non-scaling-stroke" stroke="#000000" stroke-width="0.200mm" fpd:engraving_ral_9005="1" />
<path d="
M52.800 13.975
L53.375 13.975
L53.375 14.032
A0.288,0.288 0 0,1 52.800,14.032
L52.800 13.917
A0.301,0.301 0 0,1 53.341,13.733
" 
fill="none" vector-effect="non-scaling-stroke" stroke="#000000" stroke-width="0.200mm" fpd:engraving_ral_9005="1" />
<path d="
M53.651 13.630
L53.651 14.320
L53.651 14.090
A0.254,0.254 0 0,0 53.709,14.251
A0.164,0.164 0 0,0 53.962,14.251
" 
fill="none" vector-effect="non-scaling-stroke" stroke="#000000" stroke-width="0.200mm" fpd:engraving_ral_9005="1" />
<path d="
M4.931 21.937
L4.931 20.902
L5.506 20.902
" 
fill="none" vector-effect="non-scaling-stroke" stroke="#000000" stroke-width="0.200mm" fpd:engraving_ral_9005="1" />
<path d="
M5.782 21.937
L5.782 20.902
" 
fill="none" vector-effect="non-scaling-stroke" stroke="#000000" stroke-width="0.200mm" fpd:engraving_ral_9005="1" />
<path d="
M6.058 20.902
L6.058 21.937
L6.748 20.902
L6.748 21.937
" 
fill="none" vector-effect="non-scaling-stroke" stroke="#000000" stroke-width="0.200mm" fpd:engraving_ral_9005="1" />
<path d="
M65.900 12.000
A1.600,1.600 0 1,0 69.100,12.000
A1.600,1.600 0 1,0 65.900,12.000
" 
fill="#ffffff" vector-effect="non-scaling-stroke" stroke="#000000" stroke-width="0.100mm" />
<path d="
M2.400 12.000
A1.600,1.600 0 1,0 5.600,12.000
A1.600,1.600 0 1,0 2.400,12.000
" 
fill="#ffffff" vector-effect="non-scaling-stroke" stroke="#000000" stroke-width="0.100mm" />
<path d="
M15.455 7.907
A0.500,0.500 0 0,1 16.162,7.200
L26.848 7.200
A0.500,0.500 0 0,1 27.555,7.907
L27.555 15.193
A0.500,0.500 0 0,1 26.848,15.900
L16.162 15.900
A0.500,0.500 0 0,1 15.455,15.193
L15.455 7.907
" 
fill="#ffffff" vector-effect="non-scaling-stroke" stroke="#000000" stroke-width="0.100mm" />
<path d="
M49.019 9.106
A0.500,0.500 0 0,1 49.726,8.399
L54.312 8.399
A0.500,0.500 0 0,1 55.019,9.106
L55.019 10.692
A0.500,0.500 0 0,1 54.312,11.399
L49.726 11.399
A0.500,0.500 0 0,1 49.019,10.692
L49.019 9.106
" 
fill="#ffffff" vector-effect="non-scaling-stroke" stroke="#000000" stroke-width="0.100mm" />
<path d="
M68.500 24.000
A3.000,3.000 0 0,0 71.500,21.000
L71.500 3.000
A3.000,3.000 0 0,0 68.500,0.000
L3.000 0.000
A3.000,3.000 0 0,0 0.000,3.000
L0.000 21.000
A3.000,3.000 0 0,0 3.000,24.000
L68.500 24.000
" 
fill="none" vector-effect="non-scaling-stroke" stroke="#000000" stroke-width="0.100mm" />
</g>
</svg>
